<svg xmlns="http://www.w3.org/2000/svg" height="64" width="64" viewBox="0 0 64 64"><title>journey</title><rect data-element="frame" x="0" y="0" width="64" height="64" rx="13" ry="13" stroke="none" fill="#8f08b9"></rect><g transform="translate(12.8 12.8) scale(0.6)" fill="#ffffff" class="nc-icon-wrapper"><path data-color="color-2" d="M53,22a1,1,0,0,0-1,1V49.5a9.5,9.5,0,0,1-19,0v-35a11.5,11.5,0,0,0-23,0V41a1,1,0,0,0,2,0V14.5a9.5,9.5,0,0,1,19,0v35a11.5,11.5,0,0,0,23,0V23A1,1,0,0,0,53,22Z"></path><circle cx="53" cy="11" r="8" fill="#ffffff"></circle><circle cx="11" cy="53" r="8" fill="#ffffff"></circle></g></svg>