<svg xmlns="http://www.w3.org/2000/svg" height="64" width="64" viewBox="0 0 64 64"><title>shopping bag</title><rect data-element="frame" x="0" y="0" width="64" height="64" rx="13" ry="13" stroke="none" fill="#1fca4a"></rect><g transform="translate(12.8 12.8) scale(0.6)" fill="#e8dad8" class="nc-icon-wrapper"><path d="M58.929,54.939,52.984,21.823A1,1,0,0,0,52,21H12a1,1,0,0,0-.984.823L5.071,54.939A6,6,0,0,0,10.978,62H53.022a6,6,0,0,0,5.907-7.061Z" fill="#e8dad8"></path><path data-color="color-2" d="M23,19V13a9,9,0,0,1,18,0v6h2V13a11,11,0,0,0-22,0v6Z"></path></g></svg>